<?xml version="1.0" encoding="utf-8"?>
<!-- Generator: Adobe Illustrator 16.0.0, SVG Export Plug-In . SVG Version: 6.00 Build 0)  -->
<!DOCTYPE svg PUBLIC "-//W3C//DTD SVG 1.1//EN" "http://www.w3.org/Graphics/SVG/1.1/DTD/svg11.dtd">
<svg version="1.1" id="Layer_1" xmlns="http://www.w3.org/2000/svg" xmlns:xlink="http://www.w3.org/1999/xlink" x="0px" y="0px"
	 width="24px" height="24px" viewBox="0 0 24 24" enable-background="new 0 0 24 24" xml:space="preserve">
<g>
	<path d="M12,2c5.514,0,10,4.486,10,10s-4.486,10-10,10S2,17.514,2,12S6.486,2,12,2 M12,0C5.373,0,0,5.373,0,12s5.373,12,12,12
		s12-5.373,12-12S18.627,0,12,0L12,0z" fill="#FFFFFF"/>
	<g>
		<path d="M13.584,9.489c0,0-0.055,0.484-0.516,0.218c-0.633-0.364-1,0.243-1,0.243s0.502,0.063,1.064,0.063
			C13.697,10.014,13.584,9.489,13.584,9.489z" fill="#FFFFFF"/>
		<path d="M11.934,9.95c0,0-0.367-0.607-1-0.243c-0.461,0.267-0.518-0.218-0.518-0.218s-0.111,0.524,0.451,0.524
			C11.432,10.014,11.934,9.95,11.934,9.95z" fill="#FFFFFF"/>
		<path d="M9.133,9.633c0.516,1.507,1.486,2.653,2.869,2.653c1.33,0,2.314-1.129,2.848-2.635c1.072-1.083,0.82-1.894,0.572-2.28
			C16.006,4.576,14.223,3,11.898,3C7.736,3,8.463,7.561,8.463,7.561c0.006,0,0.01,0,0.014,0.001C8.287,7.991,8.23,8.712,9.133,9.633
			z M10.871,6.248l-0.303,1.131c1.486-0.453,1.686-0.701,1.918-0.872c0.244-0.177,0.447-0.355,0.615-0.519
			c0.078,0.138,0.174,0.264,0.283,0.378c0.111,0.116,0.275-1.048,0.275-1.048s0.41,0.707,0.467,0.936
			c0.039,0.161,0.301,0.817,0.439,0.877c-0.053,2.163-1.023,4.425-2.564,4.425c-1.438,0-2.377-1.961-2.543-3.978
			C9.854,7.555,10.871,6.248,10.871,6.248z" fill="#FFFFFF"/>
		<g>
			<path d="M10.844,14.315c0,0,0.529-0.162,0.824-0.531c0.039,0.027,0.086,0.044,0.135,0.044h0.34c0.064,0,0.123-0.028,0.17-0.072
				c0.289,0.39,0.844,0.56,0.844,0.56c0.604-0.22,0.633-1.289,0.346-1.58c-0.248-0.253-0.967,0.132-1.158,0.24
				c-0.049-0.065-0.121-0.106-0.201-0.106h-0.34c-0.07,0-0.135,0.032-0.184,0.084c-0.234-0.129-0.887-0.455-1.119-0.218
				C10.213,13.026,10.242,14.096,10.844,14.315z" fill="#FFFFFF"/>
			<circle cx="12" cy="18.021" r="0.365"/>
			<circle cx="12" cy="15.467" r="0.365"/>
			<path d="M19.463,15.747c-0.863-2.271-2.834-3.208-2.861-3.221l-2.094-0.771l-0.277,0.676l0.586,0.215l-2.154,7.111
				c-0.219,0.016-0.439,0.027-0.662,0.027c-0.211,0-0.42-0.011-0.629-0.025l-2.158-7.123l0.561-0.206l-0.279-0.675l-2.068,0.761
				l-0.027,0.011c-0.025,0.013-1.998,0.95-2.861,3.222c-0.176,0.463-0.305,0.98-0.363,1.558c1.857,2.254,4.672,3.692,7.82,3.694
				c0.004,0,0.01,0,0.014,0c0.17,0,0.34-0.005,0.508-0.014c0.004,0,0.008,0,0.01,0c2.939-0.149,5.547-1.551,7.301-3.681
				C19.768,16.729,19.639,16.21,19.463,15.747z M15.402,16.774l1.217,1.155c-0.959,0.44-2.479,0.35-2.479,0.35L15.402,16.774z" fill="#FFFFFF"/>
		</g>
	</g>
</g>
</svg>
